<svg width="122" height="118" viewBox="0 0 122 118" fill="none" xmlns="http://www.w3.org/2000/svg">
<path fill-rule="evenodd" clip-rule="evenodd" d="M21.6345 82.396C21.6345 82.396 21.6344 82.3962 21.7652 82.4695C21.8366 82.6014 21.8367 82.6014 21.8367 82.6014L21.8441 82.5974L21.8665 82.5853L21.9551 82.538C22.033 82.4966 22.1479 82.4358 22.2956 82.3586C22.5911 82.2042 23.018 81.9843 23.543 81.7224C24.5933 81.1984 26.0356 80.5065 27.6044 79.8347C29.1738 79.1627 30.8669 78.512 32.4195 78.0691C33.9776 77.6246 35.3731 77.396 36.3569 77.5497L36.4032 77.2533C35.3506 77.0888 33.9011 77.3345 32.3372 77.7806C30.7676 78.2283 29.0615 78.8844 27.4863 79.5589C25.9106 80.2337 24.4628 80.9282 23.4091 81.4539C22.8822 81.7168 22.4537 81.9376 22.1567 82.0927C22.1499 82.0963 22.1432 82.0998 22.1365 82.1033C22.1816 82.0197 22.2323 81.9251 22.2881 81.8203C22.5323 81.3612 22.8736 80.7057 23.262 79.9194C24.0385 78.3473 25.0047 76.2497 25.7602 74.1523C26.5139 72.0601 27.0654 69.9485 26.9969 68.3558C26.9626 67.5585 26.7721 66.8708 26.3531 66.3831C25.9294 65.8899 25.2922 65.6241 24.4169 65.6326L24.4199 65.9326C25.2295 65.9247 25.773 66.1681 26.1256 66.5786C26.4829 66.9944 26.6643 67.6048 26.6972 68.3687C26.763 69.8987 26.23 71.963 25.478 74.0507C24.7278 76.1332 23.767 78.2196 22.993 79.7865C22.6062 80.5697 22.2663 81.2225 22.0232 81.6794C21.9017 81.9078 21.8044 82.0872 21.7375 82.2094C21.7041 82.2705 21.6782 82.3173 21.6608 82.3488L21.641 82.3843L21.6345 82.396ZM21.7652 82.4695L21.8367 82.6014L21.3811 82.8479L21.6345 82.396L21.7652 82.4695Z" fill="#3F72AF"/>
<path fill-rule="evenodd" clip-rule="evenodd" d="M60.0278 46.1121C47.1443 53.0559 35.6464 62.8129 28.6955 74.0641L28.9507 74.2218C35.8671 63.0265 47.3198 53.3021 60.1702 46.3762C73.0205 39.4502 87.2547 35.3301 99.7245 35.3301V35.0301C87.1942 35.0301 72.9114 39.1682 60.0278 46.1121Z" fill="#3F72AF"/>
</svg>
