<svg width="151" height="50" viewBox="0 0 151 50" fill="none" xmlns="http://www.w3.org/2000/svg">
<path d="M11.8924 49.5854C11.986 49.5237 12.371 49.6683 12.5394 49.641C12.3528 50.2868 11.5513 49.8095 11.8924 49.5854ZM27.8687 2.56895C27.7383 2.73097 27.6085 2.89297 27.4792 3.05494C27.8566 3.15038 28.3745 3.02232 28.7233 3.16581C28.7811 3.18992 28.6425 3.65397 28.7786 3.67157C28.9149 3.68904 28.8747 3.05991 29.0715 2.98818C29.2952 2.90963 30.3185 3.32562 30.6741 3.30679C31.9891 3.23424 33.321 2.84283 34.645 3.07197C33.2906 3.57118 34.6768 4.01183 35.0579 3.80033C35.1421 3.7514 35.0948 2.58157 36.4763 2.84164C37.3499 3.00653 36.5886 4.70077 38.0223 3.82481C36.8736 2.68297 37.9751 2.73682 38.85 2.67481C39.0026 2.66396 40.2241 2.8075 40.7627 2.7409C40.9463 2.71787 41.2101 2.0971 41.454 2.0743C41.622 2.05906 41.7584 2.39076 42.008 2.36677C43.1695 2.259 44.3134 2.20038 45.4822 2.2796C44.8469 3.87502 46.0367 2.93542 46.093 3.00906C46.3834 3.42867 45.1311 3.58733 45.6357 3.84029C46.3277 3.77116 47.0224 3.7016 47.7131 3.63179C47.1382 3.45563 48.4275 2.28222 48.686 2.7901C48.5333 1.402 51.8835 3.90246 52.364 3.42042C52.4629 3.31877 51.7681 2.65333 53.3427 2.91593C53.5145 2.94517 53.4642 3.36731 53.5524 3.32515C53.6054 3.2998 53.8845 1.95404 54.2523 2.67993C54.3879 2.94469 53.6119 3.84947 55.3658 3.4359C54.6183 2.10229 57.7786 2.61394 58.3672 2.93165C58.2461 2.75344 58.1245 2.57522 58.0027 2.39699C58.589 2.86818 58.6725 2.4024 58.8037 2.42267C59.3285 2.50409 60.0494 2.9423 60.5311 2.88063C61.0866 2.80958 61.0572 1.96475 61.7238 2.26662C61.5618 2.08659 61.3989 1.90654 61.2352 1.72649C61.6943 1.75286 62.1308 1.77979 62.5909 1.80532C61.5872 2.96748 62.8221 1.84916 62.8995 1.82154C63.0296 1.77521 62.8599 2.24104 63.0776 2.17461C63.1003 2.16422 63.0475 1.73473 63.3851 1.6716C64.1001 1.54051 64.0065 2.08739 64.3022 2.06806C64.3309 2.06393 64.2107 1.68045 64.728 1.56485C66.3282 1.19745 64.7412 1.86271 64.6728 1.91931C64.5962 1.99352 65.2215 3.5919 63.8122 3.07817C64.2892 3.24064 64.3645 3.95659 64.4179 3.97209C64.4618 3.98495 65.2765 3.84628 65.3143 3.81957C65.6931 3.55747 65.3269 3.08293 65.3988 2.99144C65.4572 2.9179 66.4572 3.51074 66.6068 2.02375C67.135 3.36157 66.4122 3.27356 65.6389 3.5198C65.54 3.80458 66.4093 4.03505 66.4483 4.03217C67.5478 3.97486 66.8809 2.8857 67.0827 2.15813C67.1481 1.92026 67.3556 2.12047 67.3921 2.06437C67.4008 2.05175 67.4005 2.02624 67.3877 1.97997C67.367 1.90245 67.3126 1.76666 67.2069 1.53569C67.2648 1.52627 67.3168 1.51967 67.3635 1.5156C68.1173 1.45047 67.62 1.99629 67.6846 2.07401C67.7883 2.19538 68.1097 1.88956 68.1523 1.92562C68.2164 1.979 68.0233 2.33807 68.2704 2.44731C68.3134 2.4628 68.679 1.84291 68.151 1.58533C68.8427 1.63246 68.7532 1.12554 69.0389 2.13997C69.3969 0.169127 69.4491 3.26872 69.6403 3.36669C70.1402 3.62474 69.9103 2.10715 69.9304 2.03132C70.0885 1.54403 71.4515 1.98266 71.7745 1.7387C71.7198 2.84639 70.7119 1.82184 70.5149 2.04782C69.8658 2.80112 71.5354 2.5338 71.1191 3.94662C71.3052 3.55378 71.4941 3.16047 71.6824 2.76692C72.1329 3.62734 71.5994 4.05379 72.6342 3.65511C72.7539 2.87722 71.8965 3.82858 72.0379 3.21242C72.1299 2.85054 72.7212 2.73217 72.7265 2.54405C72.7172 2.31905 72.1948 2.62374 72.2549 2.27216C72.3794 1.51554 74.4626 2.07435 72.9508 2.59535C73.3703 2.55187 73.7116 4.01723 74.0553 3.52644C74.2789 3.20744 72.735 1.26738 74.846 1.48165C74.9462 2.17819 74.0242 1.75358 74.01 1.80803C73.9841 1.88802 74.2629 3.45562 74.2961 3.53149C74.3961 3.78308 76.5264 2.76303 77.128 3.51593C76.839 2.61804 78.98 3.2146 79.2221 2.92276C79.2809 2.84172 79.0061 2.29761 79.0702 2.23391C79.4706 1.85217 80.7091 2.78205 81.2572 2.78257C81.8672 2.78255 81.7715 2.30306 81.8053 2.30222C82.0793 2.31718 81.8779 2.65475 82.0408 2.64676C82.2926 2.63137 83.9797 2.64128 84.0642 2.57288C84.0876 2.55088 83.7986 2.00521 84.1604 1.8903C84.22 1.87115 84.2062 2.52491 85.2586 2.21947C86.5344 1.85464 84.355 1.42126 84.872 0.724188C85.7148 1.68509 85.671 0.717787 85.8917 0.790039C85.97 0.816496 86.5473 1.63185 87.1562 1.57431C86.7156 1.71214 86.2863 1.85123 85.8442 1.99216C86.2833 2.12914 87.1157 1.94103 87.4627 2.10206C87.632 2.18032 87.4963 2.85826 87.8651 2.83767C87.9464 2.82991 88.2392 1.17739 87.2852 1.92477C87.2038 1.33634 87.6602 1.71619 87.8763 1.54847C87.9055 1.52236 88.0424 0.537395 88.3065 1.14795C88.3689 1.28493 87.7919 3.67292 89.0566 2.53751C89.178 2.42478 89.318 2.27732 89.4803 2.08956C89.538 2.02263 89.3377 1.66301 89.3941 1.58851C89.4316 1.53796 89.893 1.68402 89.9457 1.63323C89.9985 1.57862 89.7743 1.18565 89.8371 1.10856C90.1613 0.711296 90.5561 2.26924 89.9154 2.14881C90.1354 2.3417 90.3409 2.53478 90.5569 2.7281C90.3285 1.55393 90.9054 2.39943 91.1936 2.36521C93.0867 2.14817 91.8262 1.37591 92.1542 0.983555C92.6768 0.354391 92.2591 2.35799 93.0414 1.76266C93.1079 1.70729 92.2011 0.844025 93.9981 1.34598C93.7284 1.3758 93.4613 1.40587 93.1972 1.43618C93.3338 2.57229 94.1613 1.36967 94.2251 1.35474C94.928 1.20839 94.4478 1.61049 95.506 1.04173C95.5994 0.990679 95.7972 1.27381 95.9995 1.13735C96.8368 0.575123 94.9174 0.770994 94.8645 0.311508C94.848 0.085331 96.9156 0.174685 96.9789 0.283495C97.27 0.762312 96.0441 0.476288 96.2678 1.06845C96.3509 1.27727 99.2884 0.902693 99.8658 1.14552C100.535 1.42625 100.802 2.9713 100.845 1.24314C100.998 2.94382 101.192 1.79025 101.279 1.80392C102.31 1.98498 102.319 2.00245 103.21 1.86194C103.407 1.83155 103.561 2.35046 103.633 2.26533C103.675 2.21387 103.613 1.66114 103.816 1.49629C104.095 1.27043 105.737 1.88115 105.85 2.18927C105.964 2.49704 105.149 2.30225 105.282 2.80685C105.873 2.87347 106.448 2.76554 107.043 2.83538C107.29 2.86592 107.153 3.2126 107.26 3.22266C107.305 3.2282 108.17 2.9448 108.138 2.81457C108.063 2.51082 105.41 2.63784 106.124 2.04445C106.263 1.92971 106.714 2.75042 106.667 1.76658C109.026 2.05614 111.381 2.3531 113.736 2.6574C112.352 3.34445 110.849 2.63788 109.425 2.66296C109.23 2.6654 108.574 2.55077 108.639 3.04938C109.844 3.21411 111.353 3.00347 112.503 3.36585C112.54 3.37779 112.389 3.81897 112.525 3.89426C112.779 4.03467 113.652 3.34485 113.787 3.53572C113.81 3.57985 113.309 4.15085 113.442 4.52932C113.785 5.50057 113.951 3.38138 114.276 3.41793C114.526 3.44677 116.171 4.53362 116.61 3.90119C117.08 3.22659 115.388 3.4543 115.531 2.89401C116.693 2.36759 117.826 3.01772 118.909 2.98977C118.928 2.98872 118.781 2.53949 119.023 2.48705C119.447 2.39594 119.534 3.02849 119.734 3.13718C119.949 3.25289 120.732 3.19505 120.828 3.42847C120.84 3.45905 120.656 4.07526 120.631 4.09177C120.278 4.33427 120.192 3.52106 120.162 3.50942C120.048 3.47405 119.922 3.77905 119.817 3.75632C119.645 3.71851 119.56 3.42816 119.33 3.39361C119.171 3.36871 119.303 3.92499 119.151 3.89368C119.094 3.87989 118.543 2.59997 118.435 3.88007C118.396 4.28044 123.327 5.00591 123.843 4.70971C123.425 4.53612 123.007 4.36295 122.584 4.18988C123.438 4.60317 124.526 3.62733 124.528 5.14617C125.33 5.2147 126.145 5.28541 126.944 5.35737C129.387 5.57584 131.839 5.81205 134.362 6.08893C134.948 6.26189 134.551 7.20879 135.564 7.00241C135.327 6.67239 135.1 6.34349 134.865 6.01446C135.353 6.26627 137.595 6.87794 137.989 6.71484C138.041 6.69328 138.179 5.81908 138.771 5.79803C139.293 5.78 139.306 6.44577 139.572 6.59903C139.789 6.72528 140.068 6.57934 140.131 6.62243C140.18 6.65681 140.158 7.06082 140.276 7.14377C140.651 7.40147 140.448 6.23621 140.701 7.57661C140.598 7.61589 140.503 7.65615 140.402 7.69579C140.858 7.933 141.425 8.59069 140.711 8.80909C140.587 8.84683 140.73 8.46868 140.641 8.45997C137.128 8.18103 139.864 9.21165 141.131 8.73884C141.4 9.34975 143.047 9.17593 143.047 9.28987C143.095 9.46145 142.8 9.89551 143.079 10.3276C143.114 10.3761 143.651 10.3644 143.973 10.4303C144.269 10.4906 144.474 10.6259 144.174 10.9679C144.134 11.0129 144.039 11.0229 143.919 11.0145C143.65 10.996 143.193 10.872 143.033 10.8707C143.211 11.4523 143.582 11.43 143.9 11.2307C144.279 10.9928 144.643 10.5079 144.702 10.5369C145.151 10.7623 143.73 11.5308 144.769 11.7519C145.582 11.9152 144.865 11.0468 145.2 10.7175C145.377 10.5343 146.279 11.4812 146.305 10.3096C146.637 10.1973 146.423 10.809 146.461 10.8551C146.499 10.8964 147.17 10.5669 147.39 10.8173C147.417 10.8486 147.318 11.4547 147.345 11.505C147.395 11.5921 148.079 11.4823 148.11 11.4305C148.128 11.395 147.971 10.8604 148.04 10.7322C148.117 10.585 148.792 10.717 148.834 10.5646C148.885 10.3355 148.051 10.4787 148.199 9.88463C148.57 10.0396 149.215 9.64605 149.486 9.16738C149.419 9.3043 149.032 9.32231 148.902 9.27302C148.964 8.402 149.798 8.4168 149.511 9.10593C149.695 8.73582 149.57 8.53885 149.675 8.18933C149.702 8.10083 149.966 8.08304 150.018 7.93209C150.024 7.90205 149.752 7.57265 149.807 7.39563C149.9 7.076 150.724 7.14831 150.799 7.23219C150.993 7.47012 150.306 7.75798 150.253 8.12566C150.243 8.18219 150.823 8.903 150.834 8.96663C150.866 9.64959 150.22 9.15732 150.295 9.77223C150.453 9.9022 150.613 10.0321 150.774 10.162C150.141 10.7852 149.064 10.4624 148.797 11.1679C149.63 10.9632 150.591 10.9866 150.59 12.582C150.589 13.2538 150.195 13.6474 150.211 13.8182C150.267 14.4295 150.817 13.7656 150.839 13.7979C150.856 13.8351 150.863 13.8714 150.863 13.9067C150.863 13.9067 150.863 13.9067 150.863 13.9067C150.861 14.2646 150.079 14.5221 150.042 14.6853C149.977 14.9755 150.32 16.1704 150.321 16.4346C150.307 16.4878 149.756 16.7699 149.941 17.2312C150.128 17.6973 150.617 17.7076 150.635 17.756C150.727 18.0347 149.874 18.2885 149.85 18.4528C149.836 18.536 150.292 19.0476 150.306 19.1945C150.317 19.3419 149.969 19.6635 149.832 20.1286C149.729 20.4742 150.026 20.7397 149.973 20.7939C149.935 20.83 149.135 20.822 149.097 20.8822C149.038 20.9718 149.223 21.3859 149.195 21.4891C149.156 21.6376 148.9 21.4871 148.932 21.6401C148.953 21.7548 149.956 23.1824 149.952 23.5625C149.939 24.2117 148.866 22.7158 149.863 25.2792C149.87 25.2961 150.115 25.1144 150.122 25.1301C150.273 25.6014 149.485 26.3257 150.447 26.1997C148.655 27.0161 150.223 27.1753 149.957 28.2678C149.855 28.6879 149.152 28.8591 149.148 28.9219C149.215 29.4551 149.44 29.0426 149.516 29.3041C149.558 29.4504 148.924 30.0112 149.064 30.3776C149.138 30.5668 149.809 30.5016 149.836 30.5382C150.1 30.8854 149.775 31.2586 149.833 31.505C149.872 31.6703 150.274 31.6838 150.284 31.7135C150.302 31.7754 149.754 32.4423 149.637 32.6766C149.549 32.8569 149.877 33.1404 149.816 33.2189C149.448 33.6892 148.657 32.4854 149.415 34.1702C149.462 34.2735 149.749 34.2325 149.757 34.253C149.934 34.7302 149.405 34.7703 149.307 35.1601C149.141 35.8321 149.911 35.4596 149.27 35.9305C149.749 36.372 150.015 36.3538 150.56 36.2313C149.042 36.5724 148.462 38.3104 150.191 38.2703C149.65 38.2427 149.705 39.2251 149.541 39.242C149.44 39.2518 148.627 38.2708 148.992 40.4647C149.039 40.7389 149.535 40.3927 149.378 40.9526C148.18 40.8043 149.354 41.3094 149.353 41.3832C149.373 42.6802 146.298 41.5909 145.693 41.7064C145.035 41.8563 144.385 42.844 144.235 42.8378C143.745 42.8135 144.178 42.3182 144.078 42.1229C143.985 41.933 142.519 42.8339 142.444 42.7708C142.184 42.5329 142.509 41.9428 142.482 41.9099C142.319 41.7009 141.712 41.6941 141.088 41.6968C140.525 41.6999 140.011 41.7186 139.799 41.6282C139.761 42.0243 140.744 42.1565 140.062 42.728C139.279 43.3939 139.453 41.6505 139.439 41.5718C136.597 41.2681 134.36 41.0707 131.728 40.8981C131.691 41.8276 133.409 41.2548 133.441 41.3822C133.602 42.1196 130.799 41.8943 130.457 41.5465C130.704 41.7648 130.967 41.9845 131.212 42.2035C130.685 43.2393 129.78 41.7843 129.08 42.2147C128.859 42.3545 129.239 42.7923 129.228 42.8199C128.968 43.2202 128.599 42.8765 128.923 42.3371C128.295 42.8345 128.426 42.2512 127.972 42.1798C127.948 42.1766 128.12 42.6195 127.746 42.777C127.578 42.8507 126.669 42.8007 126.534 43.1721C126.477 43.3283 126.834 45.0262 126.975 43.5898C127.911 44.3472 127.323 42.9513 127.699 43.0062C127.755 43.0172 127.585 43.8126 128.551 43.4913C128.284 44.9288 127.257 43.7812 127.056 43.9465C126.65 44.2851 128.201 45.1249 128.557 44.0141C128.349 45.1364 128.665 44.1734 129.009 44.2417C129.389 44.3162 129.204 44.6425 129.412 44.6576C129.975 44.7026 129.795 43.8895 130.215 44.6399C129.91 42.3826 131.035 44.3999 131.35 45.0096C130.756 45.0804 130.157 45.1531 129.555 45.2276C129.581 45.3468 129.607 45.4659 129.633 45.585C129.48 45.5584 129.324 45.5317 129.166 45.505C129.198 45.3946 129.231 45.2841 129.264 45.1737C128.412 45.8514 128.252 45.0205 128.191 45.0075C127.333 44.8605 126.344 44.8123 125.462 44.7635C125.357 44.7577 125.372 45.2165 124.911 45.0998C124.793 45.0694 124.643 44.999 124.448 44.8699C124.146 44.6725 124.469 44.1196 124.11 44.1872C123.594 45.7077 123.666 44.4784 123.535 44.47C123.159 44.4521 122.904 44.8231 122.872 44.8256C122.411 44.8635 121.724 44.7681 121.21 44.8022C121.2 44.8076 121.447 45.2935 121.118 45.1383C121 45.0828 120.033 43.0131 119.085 43.6345C119.321 43.7811 119.554 43.9278 119.786 44.0745C119.518 43.8713 117.511 44.3 117.975 44.8615C118.258 45.2044 119.036 43.9302 119.064 45.1877C118.424 44.783 114.75 45.2029 114.479 44.9027C114.441 44.8597 114.698 44.4616 114.645 44.4075C114.606 44.3663 113.761 44.4321 113.658 44.2719C113.595 44.1767 113.972 43.9405 113.948 43.7928C113.926 43.6872 112.887 43.4756 112.808 43.9838C113.074 43.788 113.788 43.9926 113.395 44.4091C113.344 44.4607 113.103 44.1227 113.042 44.1884C112.471 44.794 114.114 44.7021 114.37 44.717C113.317 45.329 111.748 44.507 110.54 44.8915C110.071 44.4509 111.278 44.2657 110.743 43.8957C109.632 43.129 110.422 44.473 110.385 44.5258C110.089 44.9449 109.204 42.618 109.148 44.3657C108.745 44.0896 108.885 43.8734 108.297 44.084C108.37 44.2074 108.443 44.3309 108.515 44.4543C107.841 45.4463 106.555 42.8517 106.662 42.66C106.952 42.1466 107.639 42.9813 107.7 42.9636C107.79 42.9375 108.094 41.1712 109.028 42.7878C109.469 41.6109 107.494 41.9365 108.412 41.1535C107.805 41.267 105.346 40.3666 104.974 40.8795C104.929 40.9466 105.094 42.1372 104.499 41.5171C104.216 41.2219 104.917 41.2273 104.792 40.9536C104.401 40.1098 98.8251 40.5031 97.7737 40.5313C97.7051 40.5313 97.7375 40.1639 97.67 40.1659C97.4621 40.1721 96.705 40.7067 96.3379 40.5309C97.0867 41.2255 95.6123 41.2523 95.2343 41.1718C94.6696 41.0488 94.7155 40.402 94.469 40.2607C93.5344 39.7157 92.0522 41.2372 91.343 39.7952C91.3701 41.2217 90.103 39.0876 89.5179 39.0754C89.3772 39.0721 89.2196 39.1607 89.0886 39.3017C88.7815 39.6155 88.6041 40.1883 89.0266 40.5843C88.2522 40.5194 87.4511 40.7911 86.7609 40.8875C86.6451 40.9037 86.7982 40.4796 86.6017 40.5207C86.5843 40.5275 86.5648 40.9411 86.401 40.9868C85.0468 41.3732 85.6874 40.4832 85.4265 40.2303C85.2805 40.0892 85.177 40.0201 85.1004 39.9984C85.882 39.8953 86.819 39.7201 87.0735 39.7056C86.8374 38.7933 85.2755 39.9101 84.8321 39.6808C84.8162 39.6724 84.8555 39.1678 84.8395 39.1647C84.8392 39.1647 84.8389 39.1647 84.8385 39.1647C84.6706 39.1295 83.6108 39.3553 83.8555 39.9467C83.9206 40.1045 84.4042 40.0844 84.9826 40.0135C84.8266 40.1306 84.962 40.6905 84.9347 40.7154C84.613 41.0026 83.7783 40.4831 83.4925 40.4226C83.4261 40.4093 83.4473 40.7698 83.4367 40.7712C83.1748 40.7013 83.2336 39.6661 83.0177 40.7415C82.4812 39.481 83.8912 40.5086 83.7571 39.681C83.6644 39.0288 80.6173 39.5568 80.662 40.5785C80.6429 40.4714 80.5887 40.3406 80.4849 40.195C80.2623 39.8702 79.322 40.0494 79.1644 40.2492C79.1388 40.288 79.227 41.2667 79.1924 41.2785C79.1128 41.3073 77.8323 40.6359 77.3969 41.2519C77.6684 41.369 77.9213 41.4873 78.188 41.6045C76.6605 41.7324 76.9167 42.0047 77.4503 42.2586C77.4767 42.2592 77.505 42.2944 77.5301 42.2965C77.948 42.482 78.4617 42.6513 78.4745 42.7281C78.5416 43.0209 75.9235 43.3865 76.3572 42.4386C76.423 42.3093 77.6733 42.6208 77.0198 42.0184C76.9013 41.9134 76.1315 42.1573 76.0821 42.0888C75.7697 41.6347 77.4452 40.8733 77.1766 40.2139C76.8175 40.8884 76.2517 40.5907 75.7881 40.7914C75.5756 40.8824 75.555 41.3777 75.5284 41.3889C75.1311 41.5464 75.3236 41.0147 75.19 41.0372C75.122 41.0512 74.3921 42.2037 74.4419 40.6812C71.8798 41.967 73.7929 41.8453 75.3974 41.6451C74.9354 42.232 73.8973 42.035 73.464 42.191C73.3041 42.2479 73.4319 42.7465 73.1625 42.865C72.6761 43.0833 70.4707 42.7729 69.5038 42.6252C69.3869 42.607 69.2873 42.5915 69.2113 42.5803C69.6184 42.3804 69.4685 41.8366 69.149 41.8911C68.8272 41.9459 69.1367 42.6663 69.0775 42.7485C69.0099 42.8345 67.4715 42.5625 67.2247 42.6687C68.3587 42.3483 68.0693 41.8124 67.1005 41.8005C67.2307 41.6361 67.3598 41.4716 67.4958 41.3067C66.9426 41.556 65.7203 40.7723 65.4081 41.0354C65.3587 41.0777 65.5628 41.531 65.535 41.5548C65.2513 41.7639 64.2749 41.3342 64.2334 41.4936C64.201 41.6263 64.63 41.9956 64.485 42.1926C64.4572 42.2339 64.0232 41.6275 63.6452 41.7967C63.5039 41.8591 63.6084 42.2919 63.5733 42.3187C63.2789 42.5411 63.4295 41.7989 62.8758 41.9397C62.4662 42.0438 62.2046 42.7739 61.6277 42.5582C63.5071 43.4011 61.9451 43.0804 61.1826 43.3877C61.061 43.4367 61.2001 44.225 60.4451 43.8674C61.9634 42.3745 59.9616 43.1277 59.5581 43.1267C59.5353 43.1227 59.5085 42.6004 59.306 42.5995C59.2889 42.6006 59.3267 42.9528 59.1393 42.9868C57.3717 43.3069 58.4936 42.8665 58.1435 42.5305C57.9948 42.3873 57.1462 42.9175 56.9166 42.9376C56.8633 42.9407 56.8751 42.5729 56.6688 42.5945C56.3034 42.6336 55.9869 43.0356 55.749 43.0748C55.7208 43.0776 55.7007 42.4986 55.2497 42.7019C55.1228 42.7588 54.9849 42.9693 55.1736 43.1296C55.7967 43.6568 56.9162 42.6692 57.6182 43.1913C58.2609 43.6669 56.2947 43.7834 56.1884 43.7896C56.1507 43.7928 56.528 43.4919 56.1325 43.4486C55.7994 43.4127 55.2249 44.4336 54.7169 44.2325C54.6788 44.2177 54.2551 43.3829 54.2716 43.3328C54.2872 43.2962 54.8879 43.0918 54.7923 42.8493C54.7793 42.8218 54.3948 42.8403 54.3381 42.6593C54.2689 42.439 54.0299 40.262 53.9457 40.21C53.7293 40.0818 53.8837 40.575 53.7454 40.5449C53.4465 40.4818 52.4102 39.8693 52.4007 40.6269C52.5705 40.6663 52.7401 40.7058 52.9094 40.7452C51.9767 40.8533 52.3851 41.1624 52.2572 41.3086C52.1189 41.4667 52.138 40.8005 51.8191 40.7481C51.7512 40.7367 50.4357 40.917 50.4674 41.1952C51.1853 40.7283 50.9394 41.5585 50.9738 41.5722C51.1035 41.6217 51.2524 41.1556 51.424 41.1593C52.6324 41.1931 51.4385 41.9594 51.7294 42.1375C51.8286 42.1974 52.013 41.7976 52.0553 41.8164C52.1932 41.8772 52.2119 42.3924 52.3011 42.3478C52.5091 42.2443 52.2392 41.5231 52.2547 41.4846C52.429 41.0222 53.1837 41.5661 52.7509 42.3744C53.0356 42.6514 53.0363 41.6861 53.2666 42.0644C53.7284 42.8134 53.0684 42.6388 52.8974 42.7712C52.2806 43.2488 52.0761 42.885 51.187 43.0399C50.8661 43.0947 50.4961 43.5751 50.3481 43.6055C50.2548 43.6246 49.3151 42.0222 49.3663 44.5737C49.0106 44.3375 48.4197 42.673 48.0651 42.7605C47.7472 42.8402 47.8758 43.7396 47.847 43.7754C47.8027 43.8316 47.4134 43.772 47.2866 43.9034C47.1378 44.0585 47.2245 44.4007 46.9854 44.5483C46.39 44.9144 46.3788 43.9928 46.3149 43.9348C45.5724 43.2638 45.9267 44.5648 45.7694 44.6745C45.6231 44.7756 43.5178 44.3306 43.0875 44.674C43.2618 44.4846 43.4352 44.2951 43.6091 44.1056C43.2731 43.54 42.9592 44.4865 42.9247 43.4563C42.9055 45.1216 42.2134 44.0279 42.0165 44.0762C41.9388 44.096 41.9526 44.3793 41.8551 44.3942C41.4732 44.4543 40.6041 44.2518 40.4014 44.4009C39.5201 45.0436 41.8426 46.012 42.026 46.0689C41.6627 46.0607 39.6267 46.4876 40.5881 47.2623C40.7367 47.3819 40.9745 46.6306 41.0555 46.5992C41.6037 46.3927 41.1864 47.0715 41.2315 47.1338C41.308 47.2342 41.6552 46.5795 41.7536 46.6537C41.7861 46.6775 41.5968 47.2871 42.1241 47.2855C41.8807 47.8783 40.3842 47.4409 40.1929 47.5835C40.1253 47.6344 40.5914 48.8745 39.2905 47.6921C39.3083 47.8079 39.326 47.9237 39.3437 48.0395C38.6387 48.1057 37.9327 48.1717 37.226 48.2373C37.2963 47.9677 37.6812 47.4201 37.1824 47.5468C36.8956 47.6201 37.124 48.2109 37.0981 48.2288C36.8478 48.4004 32.2637 48.3125 31.3787 48.3979C31.0782 48.4264 30.2484 48.9243 30.1828 48.9346C29.8023 48.9911 28.4304 48.7087 28.1666 48.7819C27.9997 48.8288 28.171 49.3239 28.0177 49.3037C27.875 49.2843 28.0122 48.7994 27.9696 48.7802C27.8367 48.7173 27.3803 48.7752 26.8415 48.848C25.9251 48.9694 24.7592 49.1317 24.3663 48.8553C24.7466 48.9849 26.6347 47.9845 26.5917 47.6453C26.5818 47.5989 26.1097 47.2418 26.019 47.4224C25.8557 47.0084 25.3372 48.2891 25.0361 48.0454C25.0028 48.0177 25.1178 47.3029 24.5933 47.1836C24.4184 47.1428 23.9397 47.7074 23.4572 47.0937C22.7698 47.4068 19.1084 46.5438 18.872 47.3118C18.8675 47.3523 19.3819 47.608 19.0428 47.9274C18.5825 48.3521 18.9781 46.9393 18.4373 46.8261C18.3585 46.809 16.8663 46.9726 16.8124 47.0601C16.3682 47.8557 17.6834 48.1578 17.6664 48.2496C17.6243 48.4814 16.5359 48.6362 16.4913 48.5822C16.4484 48.5261 17.3213 47.4683 16.2622 47.879C16.3849 48.0025 16.5082 48.1258 16.6323 48.2492C16.1352 48.4993 16.0783 47.7762 15.9546 47.7336C15.5724 47.5985 15.1778 48.7027 14.5553 47.3521C14.3921 46.9936 14.6517 46.5904 14.6312 46.5366C14.4357 46.0539 14.2023 47.354 13.9014 46.3895C13.8796 46.3175 14.5443 45.7308 13.3704 45.7418C13.4539 45.8337 13.5348 45.9256 13.6161 46.0176C13.4528 46.2266 12.2592 46.3615 12.0982 46.3138C11.6301 46.1749 12.0345 45.5053 11.5605 45.589C11.8706 46.4992 10.4368 46.63 10.5136 45.8435C10.3255 46.8319 9.09416 46.079 8.52452 46.0585C8.16331 46.0465 7.4274 46.4805 7.31459 46.4306C7.17534 46.3694 7.21351 45.6961 6.9605 45.5472C6.88842 45.5048 6.14097 46.0011 5.48082 45.3059C5.35299 45.1719 5.08498 44.0306 5.31933 43.7447C5.7222 43.2554 6.49039 44.1728 6.47972 43.4981C6.46432 42.7764 5.4342 43.2089 5.15901 43.1152C3.87881 42.6821 4.61724 41.9132 4.58264 41.6807C4.49637 41.1165 3.79974 41.1351 3.77069 41.0843C3.65035 40.8591 4.14201 40.4117 4.14908 40.0672C4.1573 39.6186 3.48611 38.81 3.63825 38.6586C3.8573 38.4437 4.47257 39.1174 4.513 39.0851C5.01932 38.6489 4.32157 37.614 4.12823 37.1052C4.0698 36.9486 4.30126 36.6909 4.25295 36.645C3.51658 35.949 4.1013 38.1016 3.61007 37.9584C3.1731 37.8308 3.73423 37.1491 3.7178 37.1116C3.69531 37.0704 3.17498 37.0338 3.09254 36.7929C3.05236 36.6724 4.40551 35.3461 4.34865 34.7522C3.91593 34.8838 3.48375 35.0152 3.05218 35.1464C3.01848 34.3721 3.63862 34.9415 3.70391 34.8615C3.83348 34.7012 3.4712 34.3097 3.48667 34.0649C3.49465 33.9091 3.91816 33.353 3.5348 33.1244C3.40349 33.0454 3.12798 33.5887 2.64975 33.0343C4.31282 32.3245 3.15949 31.8902 3.11054 31.616C3.06295 31.3417 3.855 30.6954 2.89169 30.8104C2.84881 29.3035 2.91182 30.3341 3.18613 30.0689C3.52051 29.743 2.74495 29.2477 3.97088 29.6227C3.90096 28.9173 2.916 28.9683 2.86366 28.912C2.81859 28.861 3.03723 28.5137 2.95907 28.3962C2.03709 27.0335 2.67008 27.6557 2.40248 26.7852C2.37796 26.7075 1.50866 26.385 2.17044 26.258C3.37727 26.0269 3.88545 27.0258 4.08354 24.888C3.19044 23.9609 2.10971 25.341 1.8387 25.3645C1.42268 25.3983 1.85347 24.9623 1.80219 24.8401C1.78424 24.8006 1.42619 24.8367 1.42148 24.8021C1.1658 23.1719 3.01481 24.7746 3.59629 24.4902C3.43968 24.2462 3.28436 24.0022 3.12827 23.7582C3.33944 23.7483 3.55019 23.7383 3.76265 23.7282C2.75369 23.2386 3.72736 23.5425 3.9757 22.222C4.03151 21.9253 3.37297 22.4349 4.12389 21.6095C3.56997 21.4199 3.74367 21.15 3.24213 21.5227C3.25344 20.9936 4.38754 20.3953 4.83085 20.1228C3.2543 19.5309 4.15555 21.4704 2.79053 20.4449C2.53794 21.1003 3.18947 20.9722 3.13678 21.0804C2.94546 21.4694 2.49909 20.8523 1.96014 22.2149C1.87225 22.4386 2.24478 23.127 1.6939 23.094C1.63282 23.0893 1.2822 22.5009 1.28714 22.4583C1.33339 21.9975 1.68036 22.1701 1.69474 21.9777C1.70804 21.7956 1.32102 21.9052 1.31978 21.8547C1.30773 21.2774 1.64252 21.634 1.59389 21.4533C1.48911 21.0603 0.09612 19.8182 1.91353 20.1817C0.404572 20.8347 1.72082 20.8193 2.30758 20.5682C2.45742 20.5053 2.49574 20.1605 2.70822 20.0406C2.98213 19.8855 3.30385 20.0507 3.44508 19.9872C3.59748 19.9173 2.73028 19.1033 3.98354 19.3449C3.34504 18.5352 2.21916 19.4003 1.59095 18.8311C0.324914 17.681 2.47325 17.4336 2.69602 17.3218C2.75539 17.2915 2.55597 16.826 2.59556 16.7974C2.65949 16.7537 3.87779 16.9678 3.9955 16.5821C4.11444 16.1969 3.5508 16.6005 3.51245 16.1989C3.48778 15.9288 4.95128 15.4469 4.15747 15.2634C3.61263 15.1377 2.60367 16.2251 2.4334 15.0572C3.23849 14.9601 4.04148 14.8625 4.84309 14.7641C4.40433 14.3207 3.96445 13.877 3.52356 13.4332C4.42422 13.2912 5.20259 13.7913 6.05341 13.1525C4.00086 11.7344 6.71663 12.0144 6.74311 11.8404C6.7535 11.7368 5.94296 10.5839 5.81496 10.3728C6.52578 9.92673 8.6888 9.69899 7.41482 8.27792C7.64685 8.59915 8.19586 7.80092 8.18854 7.74089C8.11576 7.111 6.90823 7.52535 7.10408 6.95499C7.32628 6.29326 7.6556 7.18825 8.00357 7.11487C9.80436 6.73145 9.28829 3.44362 11.0916 3.95023C11.0547 3.83334 11.0179 3.71646 10.9812 3.59956C12.9398 3.76983 14.9039 3.93381 16.8709 4.09265C17.628 3.07723 19.6624 2.43358 20.6739 2.52704C20.8759 2.54534 21.8839 3.05513 21.9599 3.14617C22.1014 3.32092 21.3402 3.40214 21.6903 3.72826C21.7629 3.79543 23.4577 3.98582 23.3282 3.42566C23.1343 3.36415 22.5514 3.65768 22.4529 3.52694C21.968 2.8813 24.32 2.99854 25.905 3.00013C26.5977 3.00133 27.1633 2.97975 27.2349 2.86086C27.1178 2.68067 26.9953 2.50058 26.8752 2.32044C27.2134 2.40321 27.5341 2.48627 27.8687 2.56895ZM13.2601 47.9785C13.0591 48.5448 12.5461 48.1261 12.2414 48.2872C11.8295 48.5129 11.128 50.6915 11.4183 48.5113C12.037 48.3342 12.647 48.1566 13.2601 47.9785ZM22.2339 48.6922C21.8143 48.3965 22.1192 47.1748 22.4572 47.6744C22.4954 47.7312 22.7898 49.0904 22.2339 48.6922ZM17.9212 48.1844C17.9403 48.168 18.2931 48.1951 18.3056 48.214C18.6308 48.6976 17.5592 48.6134 17.9212 48.1844ZM38.589 47.13C38.1412 47.194 38.4946 48.291 38.7627 47.8289C38.7795 47.7996 38.6185 47.1266 38.589 47.13ZM38.2689 47.1089C37.8949 46.1281 37.2475 48.1517 37.798 47.9357C37.8513 47.9139 38.2861 47.1567 38.2689 47.1089ZM20.7615 48.234C20.8015 47.8538 21.2312 48.0299 21.4096 48.1176C21.4112 48.4641 20.9407 48.1886 20.7615 48.234ZM31.4471 47.9157C31.4579 47.6172 29.9976 47.6664 29.9059 48.0616C30.1341 47.8898 31.436 48.1842 31.4471 47.9157ZM35.1832 47.4087C35.1445 47.3581 34.6457 47.4486 34.6653 47.7114C34.9194 48.0507 35.355 47.638 35.1832 47.4087ZM42.6245 47.2337C42.6501 47.1669 42.2261 45.5029 43.1518 46.5803C43.2878 46.738 42.8302 47.1885 42.8786 47.2473C42.9796 47.3618 43.0585 47.4142 43.1209 47.4223C42.7074 47.5726 42.2764 47.6497 42.2318 47.5493C42.0222 47.0749 42.613 47.2617 42.6245 47.2337ZM46.4965 45.8757C46.5746 45.6001 47.1274 45.73 47.2554 45.8388C47.2774 45.8593 47.2052 46.5799 47.4505 46.5189C47.6475 46.4687 47.3294 45.7423 47.7193 45.8485C48.114 45.9549 47.6069 46.4944 47.6422 46.5308C47.6895 46.5785 48.2846 46.2303 48.2785 46.6584C48.2743 46.9755 47.6187 46.7807 47.4616 46.8527C47.2593 46.9453 47.5233 47.4656 47.1775 47.3623C46.9602 47.2979 47.0523 46.3665 47.0055 46.321C46.9664 46.2844 46.2294 46.8403 46.4978 45.8786C46.4973 45.8776 46.4969 45.8767 46.4965 45.8757ZM43.2327 47.3782C43.2022 47.4104 43.1657 47.4281 43.1209 47.4223C43.1584 47.4087 43.1958 47.393 43.2327 47.3782ZM14.4475 47.5584C14.6654 47.8422 14.0308 48.2165 13.7869 47.844C13.7773 47.5417 14.4161 47.5142 14.4475 47.5584ZM43.5981 46.6119C44.2236 46.827 43.7773 47.1595 43.2327 47.3782C43.4028 47.1987 43.3882 46.54 43.5981 46.6119ZM26.019 47.4224C26.0465 47.4911 26.0652 47.5987 26.0708 47.7759C25.9984 47.5834 25.9902 47.4793 26.019 47.4224ZM27.4738 47.7092C27.9595 47.1588 26.951 47.2016 26.9675 47.5878C26.9729 47.7336 27.4537 47.7311 27.4738 47.7092ZM39.1661 47.1678C39.1193 47.1161 39.7796 45.4673 38.7911 46.7174C39.3417 46.8955 38.7711 47.0879 38.7828 47.2305C38.8176 47.6403 39.7195 47.2221 39.9281 47.3941C40.0675 46.6556 39.3194 47.3381 39.1672 47.1678C39.1668 47.1678 39.1665 47.1678 39.1661 47.1678ZM53.5595 46.0532C53.447 46.4876 53.0509 46.362 52.7833 46.3453C52.8945 45.911 53.2902 46.0367 53.5595 46.0532ZM120.786 45.2615C119.016 45.583 118.861 43.8226 120.441 44.5836C120.472 44.5995 120.899 45.0886 120.786 45.2615ZM105.649 44.2662C105.504 43.4978 106.06 43.3907 106.414 43.7167C106.494 43.79 106.774 44.5724 106.424 44.7136C106.462 43.7882 105.935 43.419 105.649 44.2662ZM43.9343 46.113C44.1002 45.5987 44.6653 45.9456 44.9599 46.0137C44.7934 46.4382 44.1971 46.2652 43.9343 46.113ZM115.037 44.1142C114.854 44.0495 114.703 44.7091 114.734 44.7655C114.868 45.0243 115.234 44.5002 115.037 44.1142ZM42.1413 46.0834C42.1076 45.7798 42.834 45.4667 42.9061 46.2178C42.7473 46.1677 42.1646 46.2739 42.1413 46.0834ZM53.0501 45.8412C52.9311 45.6902 53.5123 45.394 53.6986 45.5415C53.6943 45.8659 53.1275 45.9394 53.0501 45.8412ZM112.028 44.2323C111.863 44.1688 111.445 44.137 111.39 44.404C111.321 44.7377 111.938 44.6441 112.028 44.2323ZM143.141 45.6504C143.165 45.7737 142.223 46.5853 141.837 46.3333C141.118 45.8571 143.123 45.5697 143.141 45.6504ZM116.814 43.839C117.315 44.4913 116.756 43.8567 116.752 44.5227C117.105 44.5603 117.98 44.6282 117.402 43.9501C117.291 43.819 116.978 43.8885 116.814 43.839ZM116.336 43.5976C116.271 43.8109 115.868 44.4757 116.196 44.4396C116.347 44.4218 116.623 43.6766 116.336 43.5976ZM138.078 45.487C137.877 45.1685 138.29 45.1454 138.816 45.2214C139.335 45.2971 140.026 45.4736 140.064 45.5288C140.101 45.5873 140.124 45.6412 140.135 45.686C140.223 45.5573 140.538 45.5332 140.717 45.7167C140.783 45.7837 140.828 45.8783 140.834 46.0056C140.799 45.994 140.749 45.9849 140.693 45.977C140.487 45.9481 140.202 45.9372 140.167 45.8923C140.147 45.868 140.133 45.8456 140.124 45.8233C139.832 46.2095 138.111 45.6036 138.078 45.487ZM134.858 44.5481C135.427 43.7275 135.372 45.2077 135.325 45.251C134.744 45.8037 135.188 44.7508 135.176 44.6983C135.15 44.6104 134.725 45.0791 134.859 44.5482C134.859 44.5482 134.858 44.5481 134.858 44.5481ZM137.396 45.1679C137.419 45.151 137.844 45.2433 137.863 45.2689C138.163 45.8013 136.955 45.5419 137.396 45.1679ZM49.4115 44.754C49.7506 44.8907 49.4391 45.4442 49.2104 45.2555C49.1915 45.2368 49.1122 44.6333 49.4115 44.754ZM116.073 43.7341C116.003 43.6281 114.092 43.1693 114.177 43.9946C114.345 43.9031 116.514 44.408 116.073 43.7341ZM101.682 43.0825C102.02 43.0971 101.633 43.8624 101.459 43.5694C101.395 43.4606 101.598 43.0793 101.682 43.0825ZM41.1317 45.4073C40.7807 45.8424 40.8174 44.4133 41.1446 44.894C41.1575 44.9128 41.1454 45.3903 41.1317 45.4073ZM104.381 43.5978C103.198 44.0357 103.54 41.5876 105.042 42.4583C104.991 42.5663 104.94 42.6743 104.89 42.7823C106.638 43.2 105.006 42.9584 104.571 43.0842C104.406 43.132 104.531 43.5455 104.382 43.6007C104.381 43.5998 104.381 43.5988 104.381 43.5978ZM99.901 42.9938C98.816 41.2262 100.935 42.4086 101.562 42.1974C100.942 42.9023 100.171 42.7754 101.21 43.537C99.6643 43.6432 100.321 42.9645 100.262 42.9053C100.19 42.8389 99.9472 43.0697 99.901 42.9938ZM102.872 43.0537C102.938 43.0045 103.419 43.372 103.597 43.3188C103.333 43.9073 102.432 43.3883 102.872 43.0537ZM131.388 44.6716C131.46 44.2092 131.577 43.8729 131.926 44.0737C131.791 44.2987 131.556 44.4835 131.388 44.6716ZM12.8474 45.5273C12.5745 45.4966 12.0128 45.326 12.1886 45.8149C12.2069 45.8566 12.8516 45.8027 12.8474 45.5273ZM110.491 43.1574C110.435 43.098 108.967 43.0122 109.458 43.5431C109.606 43.703 110.946 43.6809 110.491 43.1574ZM118.093 43.494C117.971 43.4842 117.466 43.5519 117.452 43.6618C117.402 44.0415 118.026 43.8566 118.093 43.494ZM11.4423 45.0626C11.4056 45.0146 10.5586 45.1071 10.6531 45.3326C10.8361 45.7594 11.5682 45.2283 11.4423 45.0626ZM50.5932 43.6242C50.6631 43.6048 50.772 44.1084 50.7965 44.1133C50.855 44.1188 52.1314 43.8833 51.6621 44.5491C51.5847 44.6609 49.7269 44.4689 49.485 44.4118C49.3708 43.7193 50.1805 44.3565 50.3696 44.279C50.4031 44.2643 50.4058 43.682 50.5928 43.6272C50.5929 43.6262 50.5931 43.6252 50.5932 43.6242ZM133.291 44.3242C133.377 43.8862 134.738 43.7094 134.675 44.2431C134.214 44.2682 133.757 44.2956 133.291 44.3242ZM132.612 44.1965C132.348 43.8621 133.028 43.8112 133.22 43.9656C133.197 44.2621 132.651 44.2452 132.612 44.1965ZM115.376 41.7345C115.224 41.837 115.655 42.499 115.548 42.6205C115.481 42.6962 115.157 42.442 115.046 42.6399C115.013 42.7028 115.328 43.3216 115.426 43.2991C115.566 43.2693 115.45 42.7872 115.601 42.7896C116.101 42.7983 116.531 43.1556 117 43.166C117.042 43.1661 116.728 42.8163 117.088 42.8352C117.144 42.8376 117.454 43.3522 117.892 43.2953C118.904 41.7799 119.542 43.3344 120.768 42.8266C120.733 42.6784 119.845 42.2469 119.792 42.2303C118.798 41.9317 116.987 41.8309 115.926 41.7875C115.654 41.7759 115.773 42.1098 115.656 42.1174C115.562 42.1228 115.696 41.5179 115.376 41.7345ZM12.9909 45.189C12.854 44.5816 12.3927 44.9714 12.0962 44.9426C12.2041 45.4908 12.7037 45.057 12.9909 45.189ZM126.389 43.3196C126.25 43.3355 125.821 43.1289 125.781 43.3104C125.718 43.5466 126.339 43.7311 126.389 43.3196ZM57.8558 43.5552C57.8697 43.5381 58.2269 43.5579 58.2408 43.5765C58.5766 44.0533 57.5045 43.9916 57.8558 43.5552ZM66.4184 43.3306C66.6939 43.2429 66.9612 43.0401 67.0758 43.5292C66.8995 43.4618 66.402 43.6758 66.4184 43.3306ZM78.5863 42.5635C78.4828 41.9229 79.3098 42.2778 79.4569 42.3245C79.4285 42.615 78.6678 43.0246 78.5863 42.5635ZM131.48 42.6427C131.93 42.7137 131.9 41.7293 132.159 42.1931C132.2 42.2715 132.198 44.3167 131.761 43.5179C131.682 43.3744 132.067 42.9162 131.48 42.6427ZM105.29 42.4857C105.424 42.0614 105.802 42.1992 106.059 42.2409C105.992 42.557 105.474 42.4603 105.29 42.4857ZM9.90758 44.585C9.67111 43.9828 8.59275 44.4373 8.86271 44.8348C8.8996 44.8868 9.75671 44.5634 9.90758 44.585ZM45.1335 44.1271C45.5595 43.6391 44.6449 43.5178 44.3705 43.9905C44.4998 43.9564 45.1047 44.1593 45.1335 44.1271ZM75.6716 42.4331C75.6953 42.412 76.183 42.4223 76.2067 42.4439C76.6456 42.9099 75.2496 42.8844 75.6716 42.4331ZM63.5561 42.6684C63.7011 42.2708 64.8504 42.5385 65.1093 42.9194C64.9007 43.5018 63.36 43.1661 63.5561 42.6684ZM129.59 42.7931C129.913 42.7935 130.223 42.9349 130.504 43.1236C130.424 43.4482 129.608 43.0406 129.59 42.7931ZM77.4503 42.2586C77.4767 42.2592 77.505 42.2944 77.5301 42.2965C77.5031 42.2846 77.4764 42.2706 77.4503 42.2586ZM122.135 42.1605C121.855 42.0174 121.889 42.6235 121.905 42.6427C122.107 42.8477 122.454 42.3222 122.135 42.1605ZM12.644 44.2958C12.5344 43.7519 12.0356 44.1793 11.749 44.0521C11.8363 44.4818 12.4089 44.3553 12.644 44.2958ZM98.7216 41.8517C98.3746 41.2533 99.8511 40.5981 100.153 40.9862C100.165 41.3514 98.7744 41.9334 98.7216 41.8517ZM43.7454 43.3486C43.7038 42.9225 43.0862 43.4552 43.2261 43.6532C43.3146 43.7792 43.7704 43.6133 43.7454 43.3486ZM100.884 41.2522C101.024 41.1251 101.336 41.5541 101.217 41.8081C101.063 42.1337 100.847 41.2887 100.884 41.2522ZM113.283 41.277C113.225 41.2096 112.397 41.6192 112.717 42.0662C112.939 42.3769 112.998 41.7613 113.053 41.7614C113.115 41.7655 114.389 42.5669 113.283 41.277ZM90.6424 41.3642C90.9419 41.2015 91.2875 41.3944 91.6057 41.3852C91.4691 41.6481 90.7714 41.7154 90.6424 41.3642ZM46.1814 43.1649C46.1001 42.9947 44.0199 42.95 45.2152 43.4477C45.2849 43.4758 46.4281 43.681 46.1814 43.1649ZM131.48 42.6427C131.423 42.6338 131.357 42.6086 131.283 42.5611C131.358 42.583 131.424 42.6168 131.48 42.6427ZM126.258 42.2533C126.383 41.9487 125.84 41.8363 125.675 41.9934C125.606 42.3699 126.238 42.2956 126.258 42.2533ZM91.6332 40.9518C91.8157 40.7754 92.133 40.9681 92.3592 40.9496C92.3152 41.2381 91.7105 41.2459 91.6332 40.9518ZM79.9164 40.9518C80.2815 41.0959 80.689 40.9867 80.6697 40.6338C80.6807 40.6884 80.7014 40.7457 80.7326 40.8025C80.7648 40.8586 81.1091 40.6691 81.2684 40.7792C82.2941 41.4192 77.5877 41.4782 80.2525 40.274C80.1416 40.4997 80.0282 40.7258 79.9164 40.9518ZM62.0117 41.898C61.78 41.4766 61.1916 42.0391 61.3565 42.2023C61.4713 42.3141 62.2455 42.3224 62.0117 41.898ZM70.3966 41.2588C70.3302 41.1856 69.7409 41.5191 69.7345 41.7463C70.1026 41.9661 70.7173 41.5984 70.3966 41.2588ZM60.3361 41.4586C60.198 41.3988 60.0495 42.0988 60.0675 42.1284C60.215 42.3763 60.579 41.836 60.3361 41.4586ZM130.667 40.712C130.5 40.5013 129.866 40.9629 129.711 41.4122C129.693 41.3223 129.636 41.2028 129.524 41.0568C129.525 41.0568 129.525 41.0568 129.525 41.0568C129.385 40.8552 124.539 40.3797 127.742 41.4444C127.843 41.4786 127.728 41.0598 128.141 41.1567C128.168 41.1636 128.162 41.4996 128.245 41.5209C128.43 41.5671 129.449 41.8418 129.675 41.586C129.673 41.6483 129.682 41.7082 129.707 41.7643C129.92 42.263 130.803 40.8747 130.667 40.712ZM71.6073 41.1284C71.4717 41.0118 71.0952 41.1518 71.0722 41.4499C71.2645 41.5846 71.9143 41.4012 71.6073 41.1284ZM46.0816 41.9514C45.8355 41.7147 45.2427 42.1876 45.4328 42.4244C45.5494 42.5701 46.3656 42.2231 46.0816 41.9514ZM67.7472 41.4913C69.1645 41.7729 68.081 41.4467 68.2741 41.0022C68.1005 41.1652 67.9248 41.3282 67.7472 41.4913ZM136.322 42.3046C136.136 42.1855 136.454 41.3553 136.62 41.8399C136.672 41.9937 136.428 42.3697 136.322 42.3046ZM147.556 42.8568C147.356 42.0941 148.382 42.5532 147.975 43.0701C147.956 43.0876 147.572 42.8861 147.556 42.8568ZM139.168 42.0287C138.958 42.5264 138.846 42.576 138.452 42.4038C139.08 42.3262 138.554 41.8078 139.168 42.0287ZM80.662 40.5785C80.6657 40.5992 80.6687 40.6145 80.6697 40.6338C80.6659 40.615 80.6636 40.597 80.662 40.5785ZM59.0428 41.6417C58.8508 41.2099 58.3718 41.2596 58.531 41.6956C58.5453 41.736 58.9826 41.9682 59.0428 41.6417ZM129.711 41.4122C129.727 41.492 129.713 41.542 129.675 41.586C129.677 41.5275 129.69 41.4728 129.711 41.4122ZM61.6326 41.1858C61.629 41.5135 62.3739 41.6114 62.4005 41.5718C62.7984 40.9879 61.9413 41.1541 61.6326 41.1858ZM41.2288 41.6268C41.1919 41.6619 41.4583 42.4997 41.599 42.1649C41.7078 41.9051 41.3667 41.4931 41.2288 41.6268ZM140.811 41.9869C140.887 41.9944 140.973 42.0026 141.058 42.0179C141.3 42.0611 141.534 42.1591 141.567 42.4581C141.456 42.4139 141.217 42.3632 141.035 42.2735C140.897 42.2049 140.796 42.1139 140.811 41.9869ZM147.154 42.2995C146.83 42.7659 146.086 42.7476 145.602 42.6532C145.618 42.0343 146.859 42.4424 147.154 42.2995ZM131.236 40.9834C131.223 40.957 130.689 40.7344 130.735 41.1543C130.806 41.7698 131.371 41.2194 131.236 40.9834ZM42.3696 42.0443C42.6215 41.751 41.9996 40.8882 41.7445 41.5748C41.6132 41.9264 42.3269 42.0934 42.3696 42.0443ZM57.5105 41.1225C57.1717 41.3752 58.0476 41.7727 58.1501 41.3341C57.9903 41.305 57.631 41.033 57.5105 41.1225ZM69.333 40.186C68.1627 38.991 68.8801 41.2436 69.0692 41.0327C69.0962 41.0026 69.3618 40.214 69.333 40.186ZM7.18439 42.095C7.0313 42.2698 7.60735 42.8982 7.68077 42.4825C7.72483 42.2224 7.28313 41.9836 7.18439 42.095ZM85.1004 39.9984C85.0606 40.0036 85.0213 40.0088 84.9826 40.0135C85.0111 39.9922 85.0493 39.9844 85.1004 39.9984ZM54.3296 39.5523C55.1502 41.2953 55.0272 39.9347 55.093 39.9399C55.2372 39.9541 55.5864 40.421 55.8522 40.3332C55.5515 40.5429 55.2492 40.7525 54.9454 40.9621C55.1943 41.082 57.3436 41.6592 57.3743 41.3706C57.4237 40.9601 56.7627 41.1116 56.7412 41.0763C56.7114 41.026 56.5673 39.8944 56.5037 39.8533C56.3963 39.7883 54.6229 39.8253 54.3296 39.5523ZM67.0201 40.4962C67.2028 40.6228 67.2705 41.0702 67.3506 40.9587C67.3776 40.9206 67.3621 40.4915 67.4546 40.376C67.305 40.4163 67.1636 40.4562 67.0201 40.4962ZM53.0166 41.1873C52.7831 40.6701 53.7587 40.8375 53.7919 40.8951C53.9707 41.245 53.2037 41.6101 53.0166 41.1873ZM61.2471 40.8197C61.212 40.7905 60.4601 40.6554 60.4761 40.946C60.6855 41.1603 61.6783 41.1865 61.2471 40.8197ZM67.5736 40.341C67.8471 40.3781 68.367 40.7854 68.2776 40.1425C68.2772 40.1426 68.2768 40.1426 68.2764 40.1426C68.0453 40.2088 67.811 40.2749 67.5736 40.341ZM43.2218 40.655C42.7105 39.6391 42.9756 40.9333 43.4118 41.2534C43.5284 40.7878 43.3055 40.8202 43.2218 40.655ZM41.657 39.93C41.5168 39.7485 40.1402 39.9884 40.3658 40.5273C40.4455 40.7195 41.2275 40.2087 41.2654 40.2454C41.3225 40.2997 41.0846 40.909 41.5063 40.7781C41.4759 40.5747 41.7048 39.9906 41.657 39.93ZM42.804 40.0071C42.3029 39.2376 42.2348 40.6841 42.5956 40.6781C42.7366 40.6768 42.8756 40.1181 42.804 40.0071ZM44.766 40.0752C44.5896 39.9432 44.1243 39.7565 43.821 40.2455C44.2461 40.2746 44.6714 40.3036 45.0965 40.3325C45.1377 40.0591 44.9204 40.1912 44.7649 40.0752C44.7653 40.0752 44.7656 40.0752 44.766 40.0752ZM150.301 38.622C149.915 38.2123 150.804 38.0557 150.837 38.1562C150.948 38.4902 150.475 38.805 150.301 38.622ZM4.16478 28.9837C4.05893 28.8206 3.99008 28.2836 3.75853 28.5653C3.99223 28.9615 4.22505 29.3577 4.46082 29.7537C4.64078 28.8449 4.2803 29.1636 4.16478 28.9837ZM3.27088 25.6654C3.30381 25.6433 3.12263 24.2465 3.54812 25.1787C3.83593 25.8083 2.27532 26.4234 1.99307 25.8039C2.30399 25.516 2.98767 25.845 3.27088 25.6654ZM0.535809 19.6194C0.518081 19.508 1.11021 19.3445 1.17905 19.423C1.53948 19.837 0.633116 20.2163 0.535809 19.6194ZM2.42518 19.8855C2.14743 19.6144 2.76178 19.4392 2.94495 19.5951C2.96241 19.8552 2.46905 19.925 2.42518 19.8855ZM146.693 18.3492C146.453 17.3923 146.142 19.4268 146.576 19.0287C146.597 19.01 146.704 18.3961 146.693 18.3492ZM1.115 18.2101C1.39303 18.4814 0.777245 18.6563 0.593934 18.5002C0.576971 18.2404 1.07256 18.1704 1.115 18.2101ZM146.574 16.0828C146.251 15.3886 146.292 17.684 146.334 17.778C146.505 18.1498 147.165 17.2672 147.299 17.0456C146.343 17.3668 146.73 16.4089 146.574 16.0828ZM144.922 17.387C144.587 17.6123 145.383 18.1276 145.573 17.4949C145.41 17.5183 145.017 17.3221 144.922 17.387ZM143.081 16.5041C142.921 16.4063 142.402 16.154 142.268 16.5021C142.483 16.46 142.975 16.8671 143.081 16.5041ZM142.794 15.3883C142.567 14.8715 142.345 16.2844 142.717 15.8957C142.731 15.8806 142.801 15.4165 142.794 15.3883ZM141.163 14.6924C141.013 14.1045 140.629 15.4542 140.961 15.5279C141.062 15.5475 141.178 14.7595 141.163 14.6924ZM146.236 13.6026C146.007 13.3495 145.651 14.3257 146.166 14.456C145.976 14.6001 145.787 14.7433 145.598 14.8856C146.256 15.472 146.265 14.0946 146.458 14.1589C146.73 14.2488 146.677 15.3809 146.608 15.735C146.86 15.0496 147.856 15.0611 148.469 14.933C147.935 14.6372 147.118 14.1166 146.645 13.9159C146.51 13.8581 146.366 14.1642 146.251 14.125C146.067 14.0604 146.249 13.6195 146.237 13.6026C146.237 13.6026 146.236 13.6026 146.236 13.6026ZM138.753 14.42C138.178 13.7177 138.443 15.1388 138.83 14.928C138.847 14.9106 138.768 14.4372 138.753 14.42ZM0.318676 13.9883C1.12033 14.5689 0.540073 15.3389 2.21259 14.1696C1.5112 14.9973 2.17391 14.7646 2.0371 15.0984C1.92792 15.3625 1.51401 15.144 1.75449 15.6757C1.4396 15.097 0.0677096 15.2572 0.00607663 15.1632C0.00665248 15.1632 0.00722833 15.1632 0.00780419 15.1632C-0.0289836 15.1075 0.0625665 13.8036 0.318676 13.9883ZM143.435 12.8884C143.439 11.1948 143.108 13.8509 142.904 12.4244C142.432 13.7609 143.228 13.3491 143.693 13.4712C143.915 13.5294 144.098 13.7099 144.115 14.2616C143.857 14.2099 143.703 14.2147 143.621 14.2522C143.519 14.2986 143.529 14.3951 143.599 14.4909C143.836 14.822 144.763 15.1278 144.123 13.3921C145.014 14.3946 144.46 13.0994 144.631 12.7848C144.81 12.4495 145.328 12.8603 145.338 12.2313C145.337 12.2313 145.337 12.2313 145.337 12.2312C145.004 12.2563 144.675 12.2781 144.349 12.2964C144.559 13.6328 143.952 13.2389 143.811 12.1873C143.807 12.1566 143.803 12.1252 143.8 12.0934C143.683 12.3591 143.561 12.6241 143.435 12.8884ZM145.235 14.3031C145.202 14.2716 144.446 14.4124 144.474 14.6857C144.559 14.8687 145.645 14.7236 145.235 14.3031ZM148.749 14.1062C148.441 14.1009 147.984 13.8309 147.816 14.3388C148.11 14.3472 148.577 14.6161 148.749 14.1062ZM132.367 12.7601C131.898 13.1483 133.249 13.3647 132.889 12.8427C132.868 12.8177 132.39 12.7419 132.367 12.7601ZM142.568 13.0543C142.219 12.4982 142.234 14.1494 142.578 13.7568C142.598 13.7336 142.584 13.0797 142.568 13.0543ZM0.968462 13.789C0.997976 13.3873 2.15847 13.6693 2.36374 13.6656C2.24745 14.0392 0.936218 14.2497 0.968462 13.789ZM149.301 12.6063C148.687 11.1601 147.89 12.8182 147.802 12.7797C147.717 12.7412 147.861 12.112 147.842 12.0947C147.794 12.0597 146.912 12.0933 146.873 12.1348C146.842 12.1682 146.974 13.0598 146.786 13.334C147.134 12.8449 148.811 13.1824 148.921 13.082C148.993 13.0037 148.463 12.0691 149.3 12.6063C149.3 12.6063 149.3 12.6063 149.301 12.6063ZM147.592 12.5826C147.81 12.9589 147.178 12.9933 147.035 12.8515C146.713 12.536 147.56 12.5391 147.592 12.5826ZM146.145 12.1974C146.079 12.112 145.492 12.0079 145.42 12.4178C145.67 12.9706 146.29 12.3981 146.145 12.1974ZM138.522 11.5484C138.305 11.5807 137.752 11.2102 137.689 11.5681C137.902 11.5341 138.452 11.905 138.522 11.5484ZM4.9119 10.6271C4.5896 10.325 5.33398 10.1997 5.55122 10.3443C5.56286 10.5857 4.94081 10.6531 4.9119 10.6271ZM142.872 9.60694C142.841 9.49319 140.342 9.49455 139.938 9.62729C140.289 9.9346 142.729 10.224 142.784 10.0954C142.816 10.0587 142.884 9.62564 142.872 9.60694ZM146.759 9.72193C146.946 9.19473 147.04 9.8365 147.062 9.84515C147.273 9.93286 147.737 9.82166 147.626 10.3328C147.231 10.1198 146.384 10.7686 146.759 9.72193ZM138.565 9.13048C137.677 9.24562 139.299 9.96249 139.133 9.38798C139.12 9.35275 138.661 9.11847 138.565 9.13048ZM143.127 9.47822C143.217 9.2955 143.672 9.31141 144.071 9.37063C144.568 9.44561 145.152 9.59931 145.307 9.60863C145.01 10.3859 144.847 9.7706 144.521 9.78546C144.433 9.79027 144.429 10.1214 144.42 10.1212C144.266 10.1238 144.412 9.75301 144.319 9.73941C144.302 9.73719 144.185 9.76586 144.032 9.79223C143.67 9.85934 142.925 9.89038 143.127 9.47822ZM146.868 9.35598C146.971 9.0562 148.18 8.94974 148.242 9.0296C148.604 9.63999 146.933 9.46915 146.868 9.35598ZM143.008 8.75531C143.364 7.86657 144.21 8.57334 143.531 8.96696C143.465 9.00224 143.235 8.57582 143.008 8.75531ZM138.742 8.26436C138.702 8.23273 137.803 7.96472 137.759 8.25619C137.879 8.38027 139.21 8.60824 138.742 8.26436ZM139.315 7.32158C139.294 7.32666 139.45 7.90991 139.03 7.79736C138.997 7.78757 138.981 7.14607 138.421 7.32799C138.305 7.36533 138.096 7.76907 138.107 7.79632C138.573 8.83957 140.466 7.10541 139.315 7.32158ZM146.905 8.84121C146.852 8.57085 147.022 7.77848 147.147 8.18562C147.201 8.36139 147.078 8.83705 146.905 8.84121ZM135.866 7.75516C136.432 7.31476 134.789 7.09367 134.696 7.21227C134.728 7.51604 135.813 7.79763 135.866 7.75516ZM5.65387 6.89267C5.65349 6.89267 5.65311 6.89267 5.65273 6.89267C6.05571 7.00106 5.80737 7.40402 5.8265 7.4166C6.68562 8.00472 6.45568 7.09426 6.58863 6.98632C6.87332 6.7527 6.83543 7.86082 7.31554 7.39941C6.51775 8.0811 7.24717 7.7937 7.26999 8.18773C7.36929 9.79594 6.1979 7.43893 5.80167 7.77704C5.74605 7.82391 6.158 8.336 6.01602 8.48248C5.55249 8.95727 4.10637 6.47752 5.65387 6.89267ZM147.253 8.11801C147.4 7.65148 148.592 8.12677 148.27 8.51133C148.205 8.5751 147.007 8.80232 147.253 8.11801ZM78.2183 5.14743C78.5731 4.7118 77.647 4.29696 77.5149 4.62657C77.4467 4.79062 78.061 5.33849 78.2183 5.14743ZM72.5104 3.8284C72.1362 3.93814 71.8489 5.66682 72.3072 5.36993C72.3579 5.33746 72.5713 4.06123 72.5104 3.8284ZM101.401 4.08086C100.976 3.46158 100.975 4.59406 101.299 4.5855C101.412 4.58265 101.414 4.10045 101.401 4.08086ZM83.9976 4.12521C83.9436 4.08689 83.3721 4.17689 83.4016 4.43654C83.6141 4.58523 84.3317 4.38717 83.9976 4.12521ZM101.543 3.92299C101.279 4.12097 101.706 4.94991 102.044 4.1575C101.88 4.21924 101.571 3.90275 101.543 3.92299ZM142.429 6.17478C142.166 6.61355 141.548 6.40449 141.158 6.44357C141.189 5.84062 142.177 6.25647 142.429 6.17478ZM74.1914 4.39167C73.8536 4.84326 74.6715 5.12914 74.5558 4.57518C74.5421 4.5457 74.2054 4.37247 74.1914 4.39167ZM115.53 4.28067C115.228 4.62918 116.128 5.1455 115.898 4.5052C115.887 4.47901 115.547 4.26126 115.53 4.28067ZM119.527 4.64184C119.31 4.51165 118.377 4.51208 118.725 4.87666C118.778 4.93257 119.497 4.96992 119.527 4.64184ZM6.61068 6.55262C6.49348 5.93438 7.15779 6.07907 7.24947 6.18675C7.28821 6.23159 6.76099 7.3571 6.61068 6.55262ZM98.5441 3.92279C98.3123 3.99557 97.7248 3.83731 97.6162 4.15999C97.893 4.09781 98.6063 4.57068 98.5441 3.92279ZM75.9171 4.25392C75.5178 3.61103 74.9641 3.72111 75.171 4.58598C75.7976 4.47766 75.0239 3.80562 75.9171 4.25392ZM103.024 3.23474C102.843 3.17895 102.683 4.01891 102.703 4.05914C102.89 4.44196 103.196 3.56736 103.024 3.23474ZM89.1239 3.72143C89.1217 3.65011 89.0962 3.59932 89.0575 3.56553C88.891 3.42844 88.5033 3.57154 88.5709 3.75753C88.5915 3.81723 88.9113 3.93571 89.0578 3.8558C89.0996 3.83161 89.126 3.78921 89.1239 3.72143ZM134.266 5.22127C134.007 4.87255 134.892 4.61415 135.125 5.01745C135.208 5.57854 134.298 5.26103 134.266 5.22127ZM108.06 3.58316C108.104 3.0491 107.184 3.32485 107.53 3.77861C107.617 3.89213 108.046 3.76167 108.06 3.58316ZM116.795 3.23377C116.16 3.848 118.709 4.39851 118.065 3.57833C118.015 3.51954 116.853 3.18188 116.795 3.23377ZM120.98 3.79846C120.877 3.72379 121.007 1.92974 121.413 2.64083C121.467 2.73307 121.179 3.19658 121.221 3.30716C121.242 3.36992 122.193 3.66332 122.236 3.62336C122.286 3.5778 122.255 2.99971 122.306 2.93723C122.362 2.86731 122.929 3.39882 123.239 3.41831C123.818 3.45384 123.901 2.97775 123.951 2.97837C124.092 2.98165 124.312 3.33267 124.593 3.3454C125.292 3.37614 126.195 3.32009 127.045 3.38461C127.946 3.45222 128.781 3.64757 129.345 4.19633C128.563 3.835 127.802 3.9838 127.008 4.10657C126.787 4.14256 126.562 4.17634 126.333 4.19492C126.673 3.20915 124.821 4.89314 125.907 3.78959C125.409 4.01263 121.315 4.02949 120.981 3.79851C120.981 3.79849 120.981 3.79848 120.98 3.79846ZM70.9797 3.42722C71.171 2.80013 69.991 3.01349 69.9251 3.7282C70.0966 3.81695 70.9509 3.49915 70.9797 3.42722ZM76.5657 1.51115C76.6875 1.39558 76.7046 0.190113 77.4484 0.74456C77.449 0.744514 77.4496 0.744467 77.4503 0.744419C77.6678 0.906454 77.4566 1.2153 77.5018 1.31641C77.5168 1.35779 78.2053 1.90583 77.6778 2.04076C76.888 2.24745 77.5343 1.15622 77.108 1.17563C77.0517 1.17868 76.3223 1.88657 76.3829 2.02497C76.3882 2.0412 76.6083 1.88625 76.6525 1.94227C76.816 2.15302 76.7737 2.53211 76.7957 2.54829C76.8549 2.58888 78.0843 1.85636 78.3269 2.3992C78.3789 2.57335 76.3317 3.14393 76.2766 3.05598C76.2236 3.00106 76.1627 1.96261 76.1044 1.86458C76.0688 1.81621 75.3285 2.26554 75.2291 2.17745C75.1985 2.15211 75.1745 2.1241 75.1567 2.10086C75.2941 2.41286 74.6166 2.44275 74.6113 2.07892C74.611 1.93586 75.0787 1.98208 75.0998 2.00541C75.108 2.01536 75.1156 2.02937 75.1223 2.03891C74.9801 1.65676 76.6225 1.54519 76.2248 0.991138C76.6876 0.634354 76.2203 1.85016 76.5657 1.51115ZM79.0533 0.687706C79.0029 0.80061 78.9528 0.913523 78.903 1.02645C79.8523 0.694679 81.0569 1.15391 82.2 1.1035C82.4921 1.0915 82.1275 0.436504 82.5212 0.603989C82.8309 0.738592 83.188 1.3474 83.0278 1.49133C82.9899 1.52692 82.3555 1.14576 82.0458 1.20084C81.126 1.36416 81.3913 1.92801 81.3372 1.94562C81.2787 1.96452 80.6812 1.59055 80.3639 1.62669C79.5779 1.71815 79.235 2.09188 78.1763 1.70495C78.743 1.28626 78.3591 0.489027 79.0533 0.687706ZM111.956 2.08128C112 1.72143 112.539 2.05987 112.74 2.01362C112.696 2.3743 112.158 2.03481 111.956 2.08128ZM30.4713 3.45207C30.3209 4.04823 31.5543 4.16669 31.2188 3.68112C31.1468 3.57333 30.626 3.45279 30.4713 3.45207ZM36.0013 3.6801C36.1617 3.51221 35.4883 3.10234 35.5014 3.56072C35.5058 3.70773 35.9804 3.70194 36.0013 3.6801ZM91.3307 0.983189C91.3631 0.964766 91.8485 1.10025 91.8644 1.13059C92.1783 1.76177 90.5916 1.38744 91.3307 0.983189ZM42.6941 2.77266C42.1322 3.17697 43.861 3.29675 43.3202 2.8166C43.2933 2.79325 42.7211 2.75304 42.6941 2.77266ZM45.0863 2.59598C44.9493 2.62081 44.335 2.44562 44.3321 2.62657C44.3284 2.91851 45.0313 3.09762 45.0863 2.59598ZM103.202 1.00013C103.15 0.330936 103.972 0.857397 104.26 0.780907C104.312 1.4505 103.494 0.922972 103.202 1.00013ZM97.9485 0.39196C101.488 -0.0630646 100.676 1.34587 97.7335 0.713202C97.7373 0.284904 97.7263 0.420935 97.9485 0.39196ZM102.454 0.568518C102.315 0.992975 101.919 0.856638 101.652 0.816147C101.707 0.519949 102.257 0.640589 102.454 0.568518ZM28.9887 2.56801C29.1897 2.02323 30.1459 2.66805 29.983 2.89459C29.9485 2.94357 28.9159 2.86686 28.9887 2.56801ZM91.6392 0.413992C91.5625 -0.236166 92.6471 0.0377731 92.7288 0.18314C93.056 0.766151 91.7373 0.270857 91.6392 0.413992ZM108.184 0.564869C108.384 0.0619831 108.903 0.339239 109.242 0.356365C109.074 0.786283 108.471 0.582478 108.184 0.564869ZM105.75 0.096777C105.771 0.0778179 106.243 0.136803 106.264 0.160826C106.638 0.668087 105.303 0.503946 105.75 0.096777ZM5.08434 2.01014C5.09903 1.99373 5.44123 2.0253 5.45353 2.04438C5.76086 2.53189 4.73174 2.43466 5.08434 2.01014Z" fill="#AD262D"/>
</svg>
